<svg width="26" height="20" viewBox="0 0 26 20" fill="none" xmlns="http://www.w3.org/2000/svg">
<g clip-path="url(#clip0_219_2162)">
<rect x="1" y="1.5" width="24" height="17" rx="3" fill="white"/>
<path fill-rule="evenodd" clip-rule="evenodd" d="M1 1.5H11.2857V9.43333H1V1.5Z" fill="#1A47B8"/>
<path fill-rule="evenodd" clip-rule="evenodd" d="M11.2857 1.5V2.63333H25V1.5H11.2857ZM11.2857 3.76667V4.9H25V3.76667H11.2857ZM11.2857 6.03333V7.16667H25V6.03333H11.2857ZM11.2857 8.3V9.43333H25V8.3H11.2857ZM1 10.5667V11.7H25V10.5667H1ZM1 12.8333V13.9667H25V12.8333H1ZM1 15.1V16.2333H25V15.1H1ZM1 17.3667V18.5H25V17.3667H1Z" fill="#F93939"/>
<path fill-rule="evenodd" clip-rule="evenodd" d="M2.14282 2.6333V3.76663H3.28568V2.6333H2.14282ZM4.42854 2.6333V3.76663H5.57139V2.6333H4.42854ZM6.71425 2.6333V3.76663H7.85711V2.6333H6.71425ZM8.99997 2.6333V3.76663H10.1428V2.6333H8.99997ZM7.85711 3.76663V4.89997H8.99997V3.76663H7.85711ZM5.57139 3.76663V4.89997H6.71425V3.76663H5.57139ZM3.28568 3.76663V4.89997H4.42854V3.76663H3.28568ZM2.14282 4.89997V6.0333H3.28568V4.89997H2.14282ZM4.42854 4.89997V6.0333H5.57139V4.89997H4.42854ZM6.71425 4.89997V6.0333H7.85711V4.89997H6.71425ZM8.99997 4.89997V6.0333H10.1428V4.89997H8.99997ZM2.14282 7.16663V8.29997H3.28568V7.16663H2.14282ZM4.42854 7.16663V8.29997H5.57139V7.16663H4.42854ZM6.71425 7.16663V8.29997H7.85711V7.16663H6.71425ZM8.99997 7.16663V8.29997H10.1428V7.16663H8.99997ZM7.85711 6.0333V7.16663H8.99997V6.0333H7.85711ZM5.57139 6.0333V7.16663H6.71425V6.0333H5.57139ZM3.28568 6.0333V7.16663H4.42854V6.0333H3.28568Z" fill="white"/>
</g>
<rect x="0.5" y="1" width="25" height="18" rx="3.5" stroke="#3C7CE6"/>
<defs>
<clipPath id="clip0_219_2162">
<rect x="1" y="1.5" width="24" height="17" rx="3" fill="white"/>
</clipPath>
</defs>
</svg>
